<?xml version="1.0" encoding="utf-8"?>
<svg
	version="1.1"
	xmlns="http://www.w3.org/2000/svg"
	xmlns:xlink="http://www.w3.org/1999/xlink"
	x="0%" y="0%"
	width="100%" height="100%"
	viewBox="0 0 128.0 128.0"
	enable-background="new 0 0 128.0 128.0"
	xml:space="preserve">
<defs>
<filter id="glow27" x="-200%" y="-200%" width="600%" height="600%" >
	<feOffset result="offOut" in="SourceGraphic" dx="1.6918267" dy="1.6918267" />
	<feGaussianBlur result="blurOut" in="offOut" stdDeviation="0.84591335" />
	<feFlood flood-color="#979797" flood-opacity="1.000" result="flood"/>
	<feComposite in="flood" in2="blurOut" operator="in" result="blendOut0"/>
	<feBlend in="blendOut0" in2="blendOut0" result="blendOut1" mode="normal" />
	<feBlend in="blendOut1" in2="blendOut0" result="blendOut2" mode="normal" />
	<feBlend in="SourceGraphic" in2="blendOut2" mode="normal" />
</filter>

</defs>
	<path
		fill="#5F5F5F"
		stroke="#000000"
		fill-opacity="1.000"
		stroke-opacity="1.000"
		fill-rule="nonzero"
		stroke-width="7.68"
		stroke-linejoin="round"
		stroke-linecap="round"
		d="M10.91,12.60L35.13,37.10L35.08,116.99L10.91,94.84L10.91,12.60z"/>
	<path
		fill="#5F5F5F"
		stroke="#000000"
		fill-opacity="1.000"
		stroke-opacity="1.000"
		fill-rule="nonzero"
		stroke-width="7.68"
		stroke-linejoin="round"
		stroke-linecap="round"
		d="M91.39,10.98L117.56,35.19L35.13,37.10L10.91,12.60L91.39,10.98z"/>
	<path
		fill="#FFFFFF"
		stroke="#000000"
		fill-opacity="1.000"
		stroke-opacity="1.000"
		fill-rule="nonzero"
		stroke-width="7.68"
		stroke-linejoin="round"
		stroke-linecap="round"
		d="M35.13,37.75L117.56,35.19L117.56,116.99L35.08,116.99L35.13,37.75z"/>
	<path
		fill="#000000"
		stroke="#000000"
		fill-opacity="1.000"
		stroke-opacity="1.000"
		fill-rule="nonzero"
		stroke-width="0.0"
		filter="url(#glow27)"
		stroke-linejoin="round"
		stroke-linecap="butt"
		d="M51.66,76.35L64.99,76.35L64.94,82.51A11.38 11.79 -0.00 0 0 87.70,82.51L87.70,76.34L65.82,75.84L65.64,62.31L65.64,62.31L86.53,62.31L86.53,43.85L100.92,53.50L100.98,82.80A24.66 25.54 -0.00 0 1 51.66,82.80L51.66,76.35z"/>
</svg>